<svg width="299.334" height="299.334" xmlns="http://www.w3.org/2000/svg" xmlns:svg="http://www.w3.org/2000/svg">
	<g>
		<title>Layer 1</title>
		<g id="svg_1">
			<path fill="#ffffff" id="svg_2" d="m164.667,57.876l0,76.791l76.791,0c-6.381,-39.346 -37.444,-70.41 -76.791,-76.791z"/>
			<path fill="#ffffff" id="svg_3" d="m57.876,134.667l76.791,0l0,-76.791c-39.346,6.381 -70.41,37.445 -76.791,76.791z"/>
			<path fill="#ffffff" id="svg_4" d="m164.667,241.458c39.347,-6.381 70.41,-37.444 76.791,-76.791l-76.791,0l0,76.791z"/>
			<path fill="#ffffff" id="svg_5" d="m134.667,241.458l0,-76.791l-76.791,0c6.381,39.346 37.445,70.41 76.791,76.791z"/>
			<path fill="#ffffff" id="svg_6" d="m149.667,0c-82.526,0 -149.667,67.141 -149.667,149.667s67.141,149.667 149.667,149.667s149.667,-67.141 149.667,-149.667s-67.141,-149.667 -149.667,-149.667zm0,269.334c-65.984,0 -119.667,-53.683 -119.667,-119.667s53.683,-119.667 119.667,-119.667c65.985,0 119.667,53.683 119.667,119.667s-53.682,119.667 -119.667,119.667z"/>
		</g>
		<g id="svg_7"/>
		<g id="svg_8"/>
		<g id="svg_9"/>
		<g id="svg_10"/>
		<g id="svg_11"/>
		<g id="svg_12"/>
		<g id="svg_13"/>
		<g id="svg_14"/>
		<g id="svg_15"/>
		<g id="svg_16"/>
		<g id="svg_17"/>
		<g id="svg_18"/>
		<g id="svg_19"/>
		<g id="svg_20"/>
		<g id="svg_21"/>
	</g>
</svg>